<svg viewBox="0 0 506 300" fill="none" xmlns="http://www.w3.org/2000/svg">
<path d="M78.0734 108.4C86.3401 108.4 93.8068 110.2 100.473 113.8C107.14 117.267 112.34 122.533 116.073 129.6C119.94 136.667 121.873 145.267 121.873 155.4V220H103.873V158C103.873 147.067 101.14 138.733 95.6734 133C90.2068 127.133 82.7401 124.2 73.2734 124.2C63.6734 124.2 56.0068 127.2 50.2734 133.2C44.6734 139.2 41.8734 147.933 41.8734 159.4V220H23.6734V72H41.8734V126C45.4734 120.4 50.4068 116.067 56.6734 113C63.0734 109.933 70.2068 108.4 78.0734 108.4ZM144.803 164.8C144.803 153.6 147.07 143.8 151.603 135.4C156.136 126.867 162.336 120.267 170.203 115.6C178.203 110.933 187.07 108.6 196.803 108.6C206.403 108.6 214.736 110.667 221.803 114.8C228.87 118.933 234.136 124.133 237.603 130.4V110.4H256.003V220H237.603V199.6C234.003 206 228.603 211.333 221.403 215.6C214.336 219.733 206.07 221.8 196.603 221.8C186.87 221.8 178.07 219.4 170.203 214.6C162.336 209.8 156.136 203.067 151.603 194.4C147.07 185.733 144.803 175.867 144.803 164.8ZM237.603 165C237.603 156.733 235.936 149.533 232.603 143.4C229.27 137.267 224.736 132.6 219.003 129.4C213.403 126.067 207.203 124.4 200.403 124.4C193.603 124.4 187.403 126 181.803 129.2C176.203 132.4 171.736 137.067 168.403 143.2C165.07 149.333 163.403 156.533 163.403 164.8C163.403 173.2 165.07 180.533 168.403 186.8C171.736 192.933 176.203 197.667 181.803 201C187.403 204.2 193.603 205.8 200.403 205.8C207.203 205.8 213.403 204.2 219.003 201C224.736 197.667 229.27 192.933 232.603 186.8C235.936 180.533 237.603 173.267 237.603 165ZM304.959 72V220H286.759V72H304.959ZM354.178 72V220H335.978V72H354.178ZM432.997 221.8C422.73 221.8 413.397 219.467 404.997 214.8C396.73 210.133 390.197 203.533 385.397 195C380.73 186.333 378.397 176.333 378.397 165C378.397 153.8 380.797 143.933 385.597 135.4C390.53 126.733 397.197 120.133 405.597 115.6C413.997 110.933 423.397 108.6 433.797 108.6C444.197 108.6 453.597 110.933 461.997 115.6C470.397 120.133 476.997 126.667 481.797 135.2C486.73 143.733 489.197 153.667 489.197 165C489.197 176.333 486.664 186.333 481.597 195C476.664 203.533 469.93 210.133 461.397 214.8C452.864 219.467 443.397 221.8 432.997 221.8ZM432.997 205.8C439.53 205.8 445.664 204.267 451.397 201.2C457.13 198.133 461.73 193.533 465.197 187.4C468.797 181.267 470.597 173.8 470.597 165C470.597 156.2 468.864 148.733 465.397 142.6C461.93 136.467 457.397 131.933 451.797 129C446.197 125.933 440.13 124.4 433.597 124.4C426.93 124.4 420.797 125.933 415.197 129C409.73 131.933 405.33 136.467 401.997 142.6C398.664 148.733 396.997 156.2 396.997 165C396.997 173.933 398.597 181.467 401.797 187.6C405.13 193.733 409.53 198.333 414.997 201.4C420.464 204.333 426.464 205.8 432.997 205.8Z" fill="black"/>
<rect x="24" y="36" width="101" height="21" fill="#9444F9"/>
</svg>
